<svg xmlns="http://www.w3.org/2000/svg" xmlns:xlink="http://www.w3.org/1999/xlink" width="500" zoomAndPan="magnify" viewBox="0 0 375 374.999991" height="500" preserveAspectRatio="xMidYMid meet" version="1.0"><defs><g/><clipPath id="7e51f5bb93"><path d="M 10.871094 13.382812 L 364.121094 13.382812 L 364.121094 242.519531 L 10.871094 242.519531 Z M 10.871094 13.382812 " clip-rule="nonzero"/></clipPath><clipPath id="1440102842"><path d="M 364.117188 144.757812 L 364.117188 143.917969 C 364.117188 142.796875 364.113281 141.667969 364.054688 140.542969 C 364.023438 139.414062 363.949219 138.289062 363.855469 137.160156 C 363.496094 132.644531 362.757812 128.117188 361.578125 123.664062 C 359.222656 114.765625 355.160156 106.179688 349.554688 98.636719 C 343.972656 91.078125 336.859375 84.5625 328.699219 79.675781 C 320.542969 74.796875 311.386719 71.460938 301.875 70.046875 C 297.125 69.3125 292.289062 69.101562 287.472656 69.304688 C 282.660156 69.554688 277.871094 70.28125 273.199219 71.429688 C 263.863281 73.757812 255.042969 77.835938 247.265625 83.136719 C 246.28125 83.789062 245.328125 84.472656 244.386719 85.171875 C 243.429688 85.855469 242.519531 86.582031 241.601562 87.308594 C 240.671875 88.023438 239.800781 88.789062 238.910156 89.539062 L 238.246094 90.105469 L 237.550781 90.730469 L 236.175781 91.992188 L 235.515625 92.613281 L 234.988281 93.128906 L 233.929688 94.160156 L 233.664062 94.421875 L 233.214844 94.875 L 231.46875 96.691406 C 229.960938 98.300781 228.496094 99.917969 227.101562 101.535156 C 221.503906 108 216.570312 114.46875 211.730469 120.875 C 206.90625 127.277344 202.230469 133.617188 197.601562 139.878906 C 188.332031 152.371094 178.964844 164.425781 168.890625 175.246094 C 163.882812 180.671875 158.695312 185.765625 153.292969 190.328125 C 147.898438 194.886719 142.308594 198.945312 136.542969 202.164062 C 130.773438 205.378906 124.867188 207.785156 118.902344 209.148438 C 117.40625 209.492188 115.910156 209.761719 114.410156 209.980469 C 113.660156 210.105469 112.90625 210.148438 112.15625 210.25 C 111.757812 210.300781 111.449219 210.316406 111.132812 210.335938 L 110.175781 210.40625 L 109.9375 210.425781 L 109.820312 210.441406 L 109.636719 210.441406 L 108.898438 210.460938 L 107.417969 210.492188 L 106.289062 210.519531 L 104.859375 210.542969 C 103.308594 210.550781 101.757812 210.480469 100.207031 210.371094 C 87.820312 209.417969 75.5625 204.515625 65.472656 196.558594 C 60.433594 192.585938 55.933594 187.882812 52.207031 182.660156 C 48.453125 177.457031 45.429688 171.738281 43.371094 165.71875 C 42.335938 162.710938 41.527344 159.632812 40.976562 156.511719 C 40.832031 155.730469 40.722656 154.949219 40.601562 154.164062 C 40.507812 153.394531 40.390625 152.546875 40.335938 151.898438 C 40.300781 151.535156 40.261719 151.273438 40.230469 150.714844 L 40.136719 149.433594 L 40.0625 147.007812 C 39.921875 140.539062 40.65625 134.0625 42.378906 127.808594 C 43.257812 124.691406 44.332031 121.617188 45.644531 118.636719 C 46.988281 115.671875 48.535156 112.789062 50.277344 110.015625 C 53.808594 104.515625 58.070312 99.398438 63.097656 95.089844 C 68.074219 90.71875 73.765625 87.160156 79.84375 84.421875 C 82.890625 83.066406 86.035156 81.902344 89.261719 80.980469 C 92.496094 80.09375 95.800781 79.425781 99.160156 78.972656 L 105.191406 78.15625 L 107.78125 73.796875 C 109.722656 70.527344 111.875 67.375 114.21875 64.359375 C 116.5625 61.339844 119.070312 58.433594 121.769531 55.695312 C 127.160156 50.21875 133.273438 45.390625 139.90625 41.359375 C 146.523438 37.292969 153.695312 34.035156 161.207031 31.714844 C 164.964844 30.558594 168.796875 29.605469 172.695312 28.886719 C 173.671875 28.722656 174.648438 28.542969 175.628906 28.398438 L 178.578125 27.996094 L 181.441406 27.683594 L 184.640625 27.46875 L 187.535156 27.34375 L 190.539062 27.3125 C 192.539062 27.332031 194.546875 27.375 196.554688 27.5 C 200.566406 27.742188 204.578125 28.234375 208.558594 28.980469 C 216.511719 30.492188 224.371094 32.917969 231.855469 36.371094 C 235.589844 38.09375 239.269531 40.015625 242.8125 42.191406 C 246.355469 44.367188 249.777344 46.773438 253.078125 49.363281 C 256.375 51.964844 259.515625 54.789062 262.519531 57.785156 C 265.503906 60.800781 268.34375 63.972656 271 67.351562 C 268.988281 63.574219 266.714844 59.878906 264.1875 56.371094 C 261.671875 52.84375 258.898438 49.488281 255.914062 46.292969 C 252.9375 43.09375 249.726562 40.089844 246.324219 37.289062 C 242.921875 34.492188 239.34375 31.867188 235.574219 29.519531 C 228.039062 24.820312 219.863281 20.976562 211.246094 18.316406 C 206.941406 16.976562 202.539062 15.898438 198.074219 15.101562 C 195.839844 14.703125 193.59375 14.367188 191.332031 14.121094 C 190.199219 14.015625 189.066406 13.886719 187.933594 13.796875 L 186.230469 13.6875 L 185.375 13.628906 L 184.734375 13.589844 L 184.683594 13.585938 L 184.519531 13.585938 L 184.417969 13.582031 L 181.210938 13.464844 L 177.679688 13.464844 L 174.238281 13.5625 C 173.09375 13.613281 171.949219 13.707031 170.804688 13.773438 C 166.222656 14.117188 161.652344 14.753906 157.128906 15.714844 C 148.082031 17.609375 139.230469 20.65625 130.851562 24.78125 C 122.492188 28.9375 114.632812 34.175781 107.5 40.320312 C 103.9375 43.394531 100.542969 46.6875 97.386719 50.207031 C 95.527344 52.28125 93.75 54.4375 92.042969 56.648438 C 89.273438 56.964844 86.507812 57.382812 83.761719 57.9375 C 79.320312 58.867188 74.945312 60.140625 70.664062 61.699219 C 66.382812 63.265625 62.257812 65.25 58.257812 67.453125 C 54.25 69.65625 50.4375 72.207031 46.8125 75.007812 C 43.183594 77.804688 39.734375 80.855469 36.570312 84.1875 C 33.402344 87.519531 30.402344 91.039062 27.765625 94.832031 C 25.128906 98.617188 22.75 102.597656 20.660156 106.730469 C 18.597656 110.878906 16.851562 115.191406 15.394531 119.609375 C 12.546875 128.453125 10.964844 137.753906 10.871094 147.058594 L 10.875 150.546875 L 10.933594 152.222656 C 10.941406 152.648438 10.992188 153.371094 11.03125 153.988281 C 11.109375 155.308594 11.21875 156.421875 11.332031 157.609375 C 11.464844 158.78125 11.59375 159.957031 11.769531 161.121094 C 12.441406 165.792969 13.488281 170.40625 14.871094 174.90625 C 17.640625 183.910156 21.769531 192.449219 27.035156 200.183594 C 32.324219 207.90625 38.703125 214.847656 45.9375 220.785156 C 53.171875 226.722656 61.28125 231.640625 69.996094 235.300781 C 78.714844 238.960938 88.066406 241.273438 97.589844 242.101562 C 99.972656 242.300781 102.363281 242.421875 104.753906 242.4375 L 108.113281 242.410156 L 109.589844 242.378906 L 110.332031 242.367188 L 110.519531 242.359375 L 110.769531 242.347656 L 111.265625 242.320312 L 113.265625 242.199219 C 113.933594 242.160156 114.605469 242.117188 115.1875 242.046875 C 116.394531 241.90625 117.609375 241.816406 118.808594 241.625 C 121.214844 241.289062 123.601562 240.859375 125.953125 240.328125 C 135.382812 238.214844 144.222656 234.5625 152.195312 230.054688 C 160.1875 225.542969 167.402344 220.25 174.003906 214.578125 C 180.601562 208.890625 186.617188 202.839844 192.253906 196.625 C 203.476562 184.144531 213.207031 171.007812 222.5 158.007812 C 227.164062 151.519531 231.632812 145.003906 236.105469 138.660156 C 240.578125 132.335938 245.046875 126.121094 249.613281 120.519531 C 250.75 119.109375 251.894531 117.773438 253.039062 116.464844 L 253.898438 115.511719 L 254.328125 115.039062 C 254.285156 115.074219 254.570312 114.78125 254.261719 115.09375 L 254.648438 114.695312 L 255.671875 113.628906 L 256.183594 113.09375 L 256.59375 112.695312 L 257.371094 111.925781 L 257.753906 111.539062 L 258.199219 111.128906 C 258.796875 110.585938 259.375 110.011719 259.992188 109.5 C 260.601562 108.976562 261.203125 108.441406 261.832031 107.953125 C 262.453125 107.445312 263.078125 106.949219 263.722656 106.484375 C 268.808594 102.65625 274.421875 99.785156 280.320312 98.007812 C 286.222656 96.273438 292.414062 95.609375 298.5625 96.164062 C 304.710938 96.699219 310.789062 98.507812 316.355469 101.398438 C 321.886719 104.335938 326.992188 108.257812 331.128906 113.132812 C 335.304688 117.972656 338.535156 123.691406 340.683594 129.90625 C 341.789062 133.007812 342.601562 136.242188 343.140625 139.5625 C 343.285156 140.390625 343.410156 141.226562 343.5 142.070312 C 343.617188 142.90625 343.6875 143.753906 343.757812 144.601562 L 343.8125 145.238281 C 343.8125 145.238281 343.824219 145.457031 343.824219 145.277344 L 343.832031 145.460938 L 343.886719 146.574219 L 343.90625 146.941406 L 343.914062 147.128906 C 343.921875 146.691406 343.921875 147.113281 343.921875 147.0625 C 343.945312 148.039062 343.980469 149.105469 343.976562 149.828125 C 343.996094 150.605469 343.964844 151.496094 343.949219 152.355469 C 343.90625 153.21875 343.886719 154.085938 343.8125 154.945312 C 343.703125 156.675781 343.5 158.398438 343.257812 160.121094 C 342.785156 163.558594 342.042969 166.976562 341.042969 170.332031 C 337.039062 183.753906 328.917969 196.226562 317.765625 205.539062 C 312.21875 210.226562 305.9375 214.144531 299.144531 217.050781 C 292.367188 219.992188 285.082031 221.949219 277.585938 222.773438 C 270.089844 223.636719 262.378906 223.382812 254.78125 222.050781 C 247.191406 220.667969 239.707031 218.195312 232.613281 214.664062 C 238.960938 219.398438 246.128906 223.207031 253.800781 225.816406 C 261.480469 228.445312 269.625 229.832031 277.894531 230.058594 C 286.15625 230.230469 294.53125 229.144531 302.613281 226.777344 C 310.683594 224.386719 318.453125 220.765625 325.570312 216.042969 C 332.660156 211.285156 339.097656 205.453125 344.585938 198.753906 C 350.078125 192.054688 354.542969 184.445312 357.835938 176.300781 C 359.484375 172.226562 360.824219 168.011719 361.839844 163.710938 C 362.34375 161.558594 362.765625 159.382812 363.09375 157.191406 C 363.277344 156.097656 363.398438 154.996094 363.542969 153.898438 C 363.65625 152.789062 363.78125 151.714844 363.855469 150.519531 C 363.957031 149.269531 363.996094 148.367188 364.054688 147.371094 L 364.105469 145.640625 L 364.113281 145.269531 L 364.121094 145.085938 Z M 364.117188 144.757812 " clip-rule="nonzero"/></clipPath><clipPath id="d29ba81e4a"><path d="M 364.117188 144.757812 L 364.117188 143.917969 C 364.117188 142.796875 364.113281 141.667969 364.054688 140.542969 C 364.023438 139.414062 363.949219 138.289062 363.855469 137.160156 C 363.496094 132.644531 362.757812 128.117188 361.578125 123.664062 C 359.222656 114.765625 355.160156 106.179688 349.554688 98.636719 C 343.972656 91.078125 336.859375 84.5625 328.699219 79.675781 C 320.542969 74.796875 311.386719 71.460938 301.875 70.046875 C 297.125 69.3125 292.289062 69.101562 287.472656 69.304688 C 282.660156 69.554688 277.871094 70.28125 273.199219 71.429688 C 263.863281 73.757812 255.042969 77.835938 247.265625 83.136719 C 246.28125 83.789062 245.328125 84.472656 244.386719 85.171875 C 243.429688 85.855469 242.519531 86.582031 241.601562 87.308594 C 240.671875 88.023438 239.800781 88.789062 238.910156 89.539062 L 238.246094 90.105469 L 237.550781 90.730469 L 236.175781 91.992188 L 235.515625 92.613281 L 234.988281 93.128906 L 233.929688 94.160156 L 233.664062 94.421875 L 233.214844 94.875 L 231.46875 96.691406 C 229.960938 98.300781 228.496094 99.917969 227.101562 101.535156 C 221.503906 108 216.570312 114.46875 211.730469 120.875 C 206.90625 127.277344 202.230469 133.617188 197.601562 139.878906 C 188.332031 152.371094 178.964844 164.425781 168.890625 175.246094 C 163.882812 180.671875 158.695312 185.765625 153.292969 190.328125 C 147.898438 194.886719 142.308594 198.945312 136.542969 202.164062 C 130.773438 205.378906 124.867188 207.785156 118.902344 209.148438 C 117.40625 209.492188 115.910156 209.761719 114.410156 209.980469 C 113.660156 210.105469 112.90625 210.148438 112.15625 210.25 C 111.757812 210.300781 111.449219 210.316406 111.132812 210.335938 L 110.175781 210.40625 L 109.9375 210.425781 L 109.820312 210.441406 L 109.636719 210.441406 L 108.898438 210.460938 L 107.417969 210.492188 L 106.289062 210.519531 L 104.859375 210.542969 C 103.308594 210.550781 101.757812 210.480469 100.207031 210.371094 C 87.820312 209.417969 75.5625 204.515625 65.472656 196.558594 C 60.433594 192.585938 55.933594 187.882812 52.207031 182.660156 C 48.453125 177.457031 45.429688 171.738281 43.371094 165.71875 C 42.335938 162.710938 41.527344 159.632812 40.976562 156.511719 C 40.832031 155.730469 40.722656 154.949219 40.601562 154.164062 C 40.507812 153.394531 40.390625 152.546875 40.335938 151.898438 C 40.300781 151.535156 40.261719 151.273438 40.230469 150.714844 L 40.136719 149.433594 L 40.0625 147.007812 C 39.921875 140.539062 40.65625 134.0625 42.378906 127.808594 C 43.257812 124.691406 44.332031 121.617188 45.644531 118.636719 C 46.988281 115.671875 48.535156 112.789062 50.277344 110.015625 C 53.808594 104.515625 58.070312 99.398438 63.097656 95.089844 C 68.074219 90.71875 73.765625 87.160156 79.84375 84.421875 C 82.890625 83.066406 86.035156 81.902344 89.261719 80.980469 C 92.496094 80.09375 95.800781 79.425781 99.160156 78.972656 L 105.191406 78.15625 L 107.78125 73.796875 C 109.722656 70.527344 111.875 67.375 114.21875 64.359375 C 116.5625 61.339844 119.070312 58.433594 121.769531 55.695312 C 127.160156 50.21875 133.273438 45.390625 139.90625 41.359375 C 146.523438 37.292969 153.695312 34.035156 161.207031 31.714844 C 164.964844 30.558594 168.796875 29.605469 172.695312 28.886719 C 173.671875 28.722656 174.648438 28.542969 175.628906 28.398438 L 178.578125 27.996094 L 181.441406 27.683594 L 184.640625 27.46875 L 187.535156 27.34375 L 190.539062 27.3125 C 192.539062 27.332031 194.546875 27.375 196.554688 27.5 C 200.566406 27.742188 204.578125 28.234375 208.558594 28.980469 C 216.511719 30.492188 224.371094 32.917969 231.855469 36.371094 C 235.589844 38.09375 239.269531 40.015625 242.8125 42.191406 C 246.355469 44.367188 249.777344 46.773438 253.078125 49.363281 C 256.375 51.964844 259.515625 54.789062 262.519531 57.785156 C 265.503906 60.800781 268.34375 63.972656 271 67.351562 C 268.988281 63.574219 266.714844 59.878906 264.1875 56.371094 C 261.671875 52.84375 258.898438 49.488281 255.914062 46.292969 C 252.9375 43.09375 249.726562 40.089844 246.324219 37.289062 C 242.921875 34.492188 239.34375 31.867188 235.574219 29.519531 C 228.039062 24.820312 219.863281 20.976562 211.246094 18.316406 C 206.941406 16.976562 202.539062 15.898438 198.074219 15.101562 C 195.839844 14.703125 193.59375 14.367188 191.332031 14.121094 C 190.199219 14.015625 189.066406 13.886719 187.933594 13.796875 L 186.230469 13.6875 L 185.375 13.628906 L 184.734375 13.589844 L 184.683594 13.585938 L 184.519531 13.585938 L 184.417969 13.582031 L 181.210938 13.464844 L 177.679688 13.464844 L 174.238281 13.5625 C 173.09375 13.613281 171.949219 13.707031 170.804688 13.773438 C 166.222656 14.117188 161.652344 14.753906 157.128906 15.714844 C 148.082031 17.609375 139.230469 20.65625 130.851562 24.78125 C 122.492188 28.9375 114.632812 34.175781 107.5 40.320312 C 103.9375 43.394531 100.542969 46.6875 97.386719 50.207031 C 95.527344 52.28125 93.75 54.4375 92.042969 56.648438 C 89.273438 56.964844 86.507812 57.382812 83.761719 57.9375 C 79.320312 58.867188 74.945312 60.140625 70.664062 61.699219 C 66.382812 63.265625 62.257812 65.25 58.257812 67.453125 C 54.25 69.65625 50.4375 72.207031 46.8125 75.007812 C 43.183594 77.804688 39.734375 80.855469 36.570312 84.1875 C 33.402344 87.519531 30.402344 91.039062 27.765625 94.832031 C 25.128906 98.617188 22.75 102.597656 20.660156 106.730469 C 18.597656 110.878906 16.851562 115.191406 15.394531 119.609375 C 12.546875 128.453125 10.964844 137.753906 10.871094 147.058594 L 10.875 150.546875 L 10.933594 152.222656 C 10.941406 152.648438 10.992188 153.371094 11.03125 153.988281 C 11.109375 155.308594 11.21875 156.421875 11.332031 157.609375 C 11.464844 158.78125 11.59375 159.957031 11.769531 161.121094 C 12.441406 165.792969 13.488281 170.40625 14.871094 174.90625 C 17.640625 183.910156 21.769531 192.449219 27.035156 200.183594 C 32.324219 207.90625 38.703125 214.847656 45.9375 220.785156 C 53.171875 226.722656 61.28125 231.640625 69.996094 235.300781 C 78.714844 238.960938 88.066406 241.273438 97.589844 242.101562 C 99.972656 242.300781 102.363281 242.421875 104.753906 242.4375 L 108.113281 242.410156 L 109.589844 242.378906 L 110.332031 242.367188 L 110.519531 242.359375 L 110.769531 242.347656 L 111.265625 242.320312 L 113.265625 242.199219 C 113.933594 242.160156 114.605469 242.117188 115.1875 242.046875 C 116.394531 241.90625 117.609375 241.816406 118.808594 241.625 C 121.214844 241.289062 123.601562 240.859375 125.953125 240.328125 C 135.382812 238.214844 144.222656 234.5625 152.195312 230.054688 C 160.1875 225.542969 167.402344 220.25 174.003906 214.578125 C 180.601562 208.890625 186.617188 202.839844 192.253906 196.625 C 203.476562 184.144531 213.207031 171.007812 222.5 158.007812 C 227.164062 151.519531 231.632812 145.003906 236.105469 138.660156 C 240.578125 132.335938 245.046875 126.121094 249.613281 120.519531 C 250.75 119.109375 251.894531 117.773438 253.039062 116.464844 L 253.898438 115.511719 L 254.328125 115.039062 C 254.285156 115.074219 254.570312 114.78125 254.261719 115.09375 L 254.648438 114.695312 L 255.671875 113.628906 L 256.183594 113.09375 L 256.59375 112.695312 L 257.371094 111.925781 L 257.753906 111.539062 L 258.199219 111.128906 C 258.796875 110.585938 259.375 110.011719 259.992188 109.5 C 260.601562 108.976562 261.203125 108.441406 261.832031 107.953125 C 262.453125 107.445312 263.078125 106.949219 263.722656 106.484375 C 268.808594 102.65625 274.421875 99.785156 280.320312 98.007812 C 286.222656 96.273438 292.414062 95.609375 298.5625 96.164062 C 304.710938 96.699219 310.789062 98.507812 316.355469 101.398438 C 321.886719 104.335938 326.992188 108.257812 331.128906 113.132812 C 335.304688 117.972656 338.535156 123.691406 340.683594 129.90625 C 341.789062 133.007812 342.601562 136.242188 343.140625 139.5625 C 343.285156 140.390625 343.410156 141.226562 343.5 142.070312 C 343.617188 142.90625 343.6875 143.753906 343.757812 144.601562 L 343.8125 145.238281 C 343.8125 145.238281 343.824219 145.457031 343.824219 145.277344 L 343.832031 145.460938 L 343.886719 146.574219 L 343.90625 146.941406 L 343.914062 147.128906 C 343.921875 146.691406 343.921875 147.113281 343.921875 147.0625 C 343.945312 148.039062 343.980469 149.105469 343.976562 149.828125 C 343.996094 150.605469 343.964844 151.496094 343.949219 152.355469 C 343.90625 153.21875 343.886719 154.085938 343.8125 154.945312 C 343.703125 156.675781 343.5 158.398438 343.257812 160.121094 C 342.785156 163.558594 342.042969 166.976562 341.042969 170.332031 C 337.039062 183.753906 328.917969 196.226562 317.765625 205.539062 C 312.21875 210.226562 305.9375 214.144531 299.144531 217.050781 C 292.367188 219.992188 285.082031 221.949219 277.585938 222.773438 C 270.089844 223.636719 262.378906 223.382812 254.78125 222.050781 C 247.191406 220.667969 239.707031 218.195312 232.613281 214.664062 C 238.960938 219.398438 246.128906 223.207031 253.800781 225.816406 C 261.480469 228.445312 269.625 229.832031 277.894531 230.058594 C 286.15625 230.230469 294.53125 229.144531 302.613281 226.777344 C 310.683594 224.386719 318.453125 220.765625 325.570312 216.042969 C 332.660156 211.285156 339.097656 205.453125 344.585938 198.753906 C 350.078125 192.054688 354.542969 184.445312 357.835938 176.300781 C 359.484375 172.226562 360.824219 168.011719 361.839844 163.710938 C 362.34375 161.558594 362.765625 159.382812 363.09375 157.191406 C 363.277344 156.097656 363.398438 154.996094 363.542969 153.898438 C 363.65625 152.789062 363.78125 151.714844 363.855469 150.519531 C 363.957031 149.269531 363.996094 148.367188 364.054688 147.371094 L 364.105469 145.640625 L 364.113281 145.269531 L 364.121094 145.085938 L 364.117188 144.757812 " clip-rule="nonzero"/></clipPath><clipPath id="b4761f2174"><path d="M 475.914062 103.253906 L 149.394531 -159.003906 L -100.921875 152.648438 L 225.597656 414.90625 Z M 475.914062 103.253906 " clip-rule="nonzero"/></clipPath><radialGradient gradientTransform="matrix(-0.626209, 0.779655, -0.779655, -0.626209, 275.341708, -10.43341)" gradientUnits="userSpaceOnUse" r="252.247069" cx="0" id="913f243d9d" cy="0" fx="0" fy="0"><stop stop-opacity="1" stop-color="rgb(0.193787%, 67.799377%, 93.699646%)" offset="0"/><stop stop-opacity="1" stop-color="rgb(0.393677%, 67.658997%, 93.513489%)" offset="0.0078125"/><stop stop-opacity="1" stop-color="rgb(0.39978%, 67.50946%, 93.313599%)" offset="0.0117188"/><stop stop-opacity="1" stop-color="rgb(0.39978%, 67.498779%, 93.299866%)" offset="0.015625"/><stop stop-opacity="1" stop-color="rgb(0.59967%, 67.498779%, 93.299866%)" offset="0.0195312"/><stop stop-opacity="1" stop-color="rgb(0.799561%, 67.481995%, 93.299866%)" offset="0.0234375"/><stop stop-opacity="1" stop-color="rgb(0.799561%, 67.282104%, 93.286133%)" offset="0.0273438"/><stop stop-opacity="1" stop-color="rgb(0.80719%, 67.098999%, 93.086243%)" offset="0.03125"/><stop stop-opacity="1" stop-color="rgb(1.00708%, 67.098999%, 92.89856%)" offset="0.0351562"/><stop stop-opacity="1" stop-color="rgb(1.199341%, 66.90979%, 92.89856%)" offset="0.046875"/><stop stop-opacity="1" stop-color="rgb(1.199341%, 66.7099%, 92.89856%)" offset="0.0507812"/><stop stop-opacity="1" stop-color="rgb(1.199341%, 66.699219%, 92.718506%)" offset="0.0546875"/><stop stop-opacity="1" stop-color="rgb(1.373291%, 66.699219%, 92.518616%)" offset="0.0585938"/><stop stop-opacity="1" stop-color="rgb(1.573181%, 66.677856%, 92.498779%)" offset="0.0625"/><stop stop-opacity="1" stop-color="rgb(1.61438%, 66.477966%, 92.498779%)" offset="0.0664062"/><stop stop-opacity="1" stop-color="rgb(1.81427%, 66.299438%, 92.349243%)" offset="0.0703125"/><stop stop-opacity="1" stop-color="rgb(1.998901%, 66.299438%, 92.199707%)" offset="0.0820312"/><stop stop-opacity="1" stop-color="rgb(2.191162%, 66.107178%, 92.199707%)" offset="0.0859375"/><stop stop-opacity="1" stop-color="rgb(2.391052%, 65.907288%, 92.021179%)" offset="0.0898438"/><stop stop-opacity="1" stop-color="rgb(2.415466%, 65.875244%, 91.821289%)" offset="0.101562"/><stop stop-opacity="1" stop-color="rgb(2.566528%, 65.675354%, 91.799927%)" offset="0.105469"/><stop stop-opacity="1" stop-color="rgb(2.703857%, 65.499878%, 91.793823%)" offset="0.117188"/><stop stop-opacity="1" stop-color="rgb(2.903748%, 65.499878%, 91.593933%)" offset="0.121094"/><stop stop-opacity="1" stop-color="rgb(3.09906%, 65.304565%, 91.398621%)" offset="0.125"/><stop stop-opacity="1" stop-color="rgb(3.09906%, 65.103149%, 91.398621%)" offset="0.128906"/><stop stop-opacity="1" stop-color="rgb(3.09906%, 65.098572%, 91.398621%)" offset="0.140625"/><stop stop-opacity="1" stop-color="rgb(3.29895%, 64.898682%, 91.19873%)" offset="0.144531"/><stop stop-opacity="1" stop-color="rgb(3.49884%, 64.698792%, 90.99884%)" offset="0.148438"/><stop stop-opacity="1" stop-color="rgb(3.511047%, 64.698792%, 90.99884%)" offset="0.152344"/><stop stop-opacity="1" stop-color="rgb(3.710938%, 64.698792%, 90.99884%)" offset="0.15625"/><stop stop-opacity="1" stop-color="rgb(3.898621%, 64.69574%, 90.99884%)" offset="0.160156"/><stop stop-opacity="1" stop-color="rgb(3.898621%, 64.497375%, 90.99884%)" offset="0.164062"/><stop stop-opacity="1" stop-color="rgb(4.092407%, 64.300537%, 90.805054%)" offset="0.167969"/><stop stop-opacity="1" stop-color="rgb(4.292297%, 64.299011%, 90.605164%)" offset="0.171875"/><stop stop-opacity="1" stop-color="rgb(4.299927%, 64.123535%, 90.59906%)" offset="0.183594"/><stop stop-opacity="1" stop-color="rgb(4.319763%, 63.923645%, 90.577698%)" offset="0.1875"/><stop stop-opacity="1" stop-color="rgb(4.525757%, 63.893127%, 90.377808%)" offset="0.191406"/><stop stop-opacity="1" stop-color="rgb(4.905701%, 63.693237%, 90.19928%)" offset="0.203125"/><stop stop-opacity="1" stop-color="rgb(5.28717%, 63.499451%, 90.011597%)" offset="0.214844"/><stop stop-opacity="1" stop-color="rgb(5.487061%, 63.499451%, 89.811707%)" offset="0.21875"/><stop stop-opacity="1" stop-color="rgb(5.499268%, 63.320923%, 89.7995%)" offset="0.222656"/><stop stop-opacity="1" stop-color="rgb(5.499268%, 63.121033%, 89.7995%)" offset="0.226562"/><stop stop-opacity="1" stop-color="rgb(5.499268%, 63.09967%, 89.779663%)" offset="0.230469"/><stop stop-opacity="1" stop-color="rgb(5.513%, 63.084412%, 89.579773%)" offset="0.234375"/><stop stop-opacity="1" stop-color="rgb(5.712891%, 62.884521%, 89.399719%)" offset="0.238281"/><stop stop-opacity="1" stop-color="rgb(6.09436%, 62.69989%, 89.399719%)" offset="0.25"/><stop stop-opacity="1" stop-color="rgb(6.29425%, 62.554932%, 89.205933%)" offset="0.253906"/><stop stop-opacity="1" stop-color="rgb(6.298828%, 62.40387%, 89.006042%)" offset="0.261719"/><stop stop-opacity="1" stop-color="rgb(6.396484%, 62.30011%, 88.999939%)" offset="0.269531"/><stop stop-opacity="1" stop-color="rgb(6.596375%, 62.10022%, 88.893127%)" offset="0.273438"/><stop stop-opacity="1" stop-color="rgb(6.800842%, 61.999512%, 88.691711%)" offset="0.28125"/><stop stop-opacity="1" stop-color="rgb(7.000732%, 61.901855%, 88.598633%)" offset="0.289062"/><stop stop-opacity="1" stop-color="rgb(7.191467%, 61.701965%, 88.50708%)" offset="0.296875"/><stop stop-opacity="1" stop-color="rgb(7.391357%, 61.499023%, 88.30719%)" offset="0.304688"/><stop stop-opacity="1" stop-color="rgb(7.580566%, 61.299133%, 88.198853%)" offset="0.3125"/><stop stop-opacity="1" stop-color="rgb(7.730103%, 61.199951%, 88.095093%)" offset="0.320312"/><stop stop-opacity="1" stop-color="rgb(7.798767%, 61.196899%, 87.895203%)" offset="0.328125"/><stop stop-opacity="1" stop-color="rgb(7.798767%, 61.000061%, 87.799072%)" offset="0.332031"/><stop stop-opacity="1" stop-color="rgb(7.798767%, 60.614014%, 87.658691%)" offset="0.335938"/><stop stop-opacity="1" stop-color="rgb(7.981873%, 60.411072%, 87.509155%)" offset="0.34375"/><stop stop-opacity="1" stop-color="rgb(8.280945%, 60.299683%, 87.5%)" offset="0.347656"/><stop stop-opacity="1" stop-color="rgb(8.49762%, 60.099792%, 87.391663%)" offset="0.355469"/><stop stop-opacity="1" stop-color="rgb(8.702087%, 59.999084%, 87.191772%)" offset="0.363281"/><stop stop-opacity="1" stop-color="rgb(8.901978%, 59.901428%, 87.098694%)" offset="0.371094"/><stop stop-opacity="1" stop-color="rgb(8.999634%, 59.701538%, 87.005615%)" offset="0.378906"/><stop stop-opacity="1" stop-color="rgb(9.100342%, 59.498596%, 86.805725%)" offset="0.386719"/><stop stop-opacity="1" stop-color="rgb(9.300232%, 59.298706%, 86.698914%)" offset="0.394531"/><stop stop-opacity="1" stop-color="rgb(9.503174%, 59.095764%, 86.595154%)" offset="0.402344"/><stop stop-opacity="1" stop-color="rgb(9.703064%, 58.80127%, 86.300659%)" offset="0.410156"/><stop stop-opacity="1" stop-color="rgb(9.889221%, 58.505249%, 86.004639%)" offset="0.425781"/><stop stop-opacity="1" stop-color="rgb(10.076904%, 58.399963%, 85.899353%)" offset="0.433594"/><stop stop-opacity="1" stop-color="rgb(10.284424%, 58.399963%, 85.899353%)" offset="0.4375"/><stop stop-opacity="1" stop-color="rgb(10.496521%, 58.293152%, 85.794067%)" offset="0.441406"/><stop stop-opacity="1" stop-color="rgb(10.699463%, 58.093262%, 85.594177%)" offset="0.449219"/><stop stop-opacity="1" stop-color="rgb(10.899353%, 57.902527%, 85.499573%)" offset="0.457031"/><stop stop-opacity="1" stop-color="rgb(10.998535%, 57.702637%, 85.40802%)" offset="0.464844"/><stop stop-opacity="1" stop-color="rgb(11.097717%, 57.524109%, 85.20813%)" offset="0.472656"/><stop stop-opacity="1" stop-color="rgb(11.297607%, 57.272339%, 84.996033%)" offset="0.480469"/><stop stop-opacity="1" stop-color="rgb(11.497498%, 56.996155%, 84.796143%)" offset="0.496094"/><stop stop-opacity="1" stop-color="rgb(11.697388%, 56.716919%, 84.698486%)" offset="0.503906"/><stop stop-opacity="1" stop-color="rgb(11.975098%, 56.517029%, 84.521484%)" offset="0.515625"/><stop stop-opacity="1" stop-color="rgb(12.184143%, 56.486511%, 84.321594%)" offset="0.519531"/><stop stop-opacity="1" stop-color="rgb(12.358093%, 56.286621%, 84.298706%)" offset="0.53125"/><stop stop-opacity="1" stop-color="rgb(12.5%, 56.098938%, 84.295654%)" offset="0.535156"/><stop stop-opacity="1" stop-color="rgb(12.5%, 56.098938%, 84.09729%)" offset="0.539062"/><stop stop-opacity="1" stop-color="rgb(12.5%, 56.098938%, 83.900452%)" offset="0.542969"/><stop stop-opacity="1" stop-color="rgb(12.5%, 55.909729%, 83.898926%)" offset="0.546875"/><stop stop-opacity="1" stop-color="rgb(12.5%, 55.709839%, 83.898926%)" offset="0.550781"/><stop stop-opacity="1" stop-color="rgb(12.678528%, 55.699158%, 83.898926%)" offset="0.554688"/><stop stop-opacity="1" stop-color="rgb(12.878418%, 55.699158%, 83.898926%)" offset="0.558594"/><stop stop-opacity="1" stop-color="rgb(12.919617%, 55.677795%, 83.699036%)" offset="0.5625"/><stop stop-opacity="1" stop-color="rgb(13.119507%, 55.471802%, 83.499146%)" offset="0.566406"/><stop stop-opacity="1" stop-color="rgb(13.299561%, 55.093384%, 83.49762%)" offset="0.578125"/><stop stop-opacity="1" stop-color="rgb(13.299561%, 54.899597%, 83.300781%)" offset="0.582031"/><stop stop-opacity="1" stop-color="rgb(13.299561%, 54.899597%, 83.102417%)" offset="0.585938"/><stop stop-opacity="1" stop-color="rgb(13.487244%, 54.899597%, 83.099365%)" offset="0.589844"/><stop stop-opacity="1" stop-color="rgb(13.687134%, 54.899597%, 83.099365%)" offset="0.59375"/><stop stop-opacity="1" stop-color="rgb(13.699341%, 54.721069%, 83.099365%)" offset="0.597656"/><stop stop-opacity="1" stop-color="rgb(13.722229%, 54.521179%, 83.074951%)" offset="0.601562"/><stop stop-opacity="1" stop-color="rgb(13.922119%, 54.499817%, 82.875061%)" offset="0.605469"/><stop stop-opacity="1" stop-color="rgb(14.099121%, 54.484558%, 82.699585%)" offset="0.609375"/><stop stop-opacity="1" stop-color="rgb(14.099121%, 54.284668%, 82.699585%)" offset="0.613281"/><stop stop-opacity="1" stop-color="rgb(14.103699%, 54.098511%, 82.699585%)" offset="0.617188"/><stop stop-opacity="1" stop-color="rgb(14.303589%, 54.003906%, 82.548523%)" offset="0.621094"/><stop stop-opacity="1" stop-color="rgb(14.588928%, 53.804016%, 82.398987%)" offset="0.632812"/><stop stop-opacity="1" stop-color="rgb(14.788818%, 53.601074%, 82.299805%)" offset="0.640625"/><stop stop-opacity="1" stop-color="rgb(15.005493%, 53.401184%, 82.099915%)" offset="0.648438"/><stop stop-opacity="1" stop-color="rgb(15.205383%, 53.196716%, 81.999207%)" offset="0.65625"/><stop stop-opacity="1" stop-color="rgb(15.299988%, 52.996826%, 81.90155%)" offset="0.664062"/><stop stop-opacity="1" stop-color="rgb(15.391541%, 52.806091%, 81.70166%)" offset="0.671875"/><stop stop-opacity="1" stop-color="rgb(15.591431%, 52.606201%, 81.599426%)" offset="0.679688"/><stop stop-opacity="1" stop-color="rgb(15.80658%, 52.418518%, 81.491089%)" offset="0.6875"/><stop stop-opacity="1" stop-color="rgb(16.00647%, 52.1698%, 81.193542%)" offset="0.695312"/><stop stop-opacity="1" stop-color="rgb(16.192627%, 51.899719%, 80.900574%)" offset="0.710938"/><stop stop-opacity="1" stop-color="rgb(16.392517%, 51.696777%, 80.799866%)" offset="0.71875"/><stop stop-opacity="1" stop-color="rgb(16.607666%, 51.496887%, 80.690002%)" offset="0.726562"/><stop stop-opacity="1" stop-color="rgb(16.807556%, 51.293945%, 80.488586%)" offset="0.734375"/><stop stop-opacity="1" stop-color="rgb(16.998291%, 51.094055%, 80.39856%)" offset="0.742188"/><stop stop-opacity="1" stop-color="rgb(17.198181%, 50.999451%, 80.39856%)" offset="0.75"/><stop stop-opacity="1" stop-color="rgb(17.298889%, 50.813293%, 80.212402%)" offset="0.757812"/><stop stop-opacity="1" stop-color="rgb(17.448425%, 50.590515%, 80.012512%)" offset="0.761719"/><stop stop-opacity="1" stop-color="rgb(17.599487%, 50.376892%, 79.998779%)" offset="0.773438"/><stop stop-opacity="1" stop-color="rgb(17.599487%, 50.19989%, 79.986572%)" offset="0.777344"/><stop stop-opacity="1" stop-color="rgb(17.599487%, 50.19989%, 79.786682%)" offset="0.78125"/><stop stop-opacity="1" stop-color="rgb(17.599487%, 50.195312%, 79.598999%)" offset="0.785156"/><stop stop-opacity="1" stop-color="rgb(17.599487%, 49.996948%, 79.598999%)" offset="0.789062"/><stop stop-opacity="1" stop-color="rgb(17.793274%, 49.80011%, 79.598999%)" offset="0.792969"/><stop stop-opacity="1" stop-color="rgb(17.993164%, 49.798584%, 79.598999%)" offset="0.796875"/><stop stop-opacity="1" stop-color="rgb(17.999268%, 49.798584%, 79.414368%)" offset="0.800781"/><stop stop-opacity="1" stop-color="rgb(17.999268%, 49.61853%, 79.214478%)" offset="0.804688"/><stop stop-opacity="1" stop-color="rgb(18.173218%, 49.41864%, 79.199219%)" offset="0.808594"/><stop stop-opacity="1" stop-color="rgb(18.383789%, 49.388123%, 79.188538%)" offset="0.8125"/><stop stop-opacity="1" stop-color="rgb(18.608093%, 49.188232%, 78.988647%)" offset="0.816406"/><stop stop-opacity="1" stop-color="rgb(18.798828%, 48.997498%, 78.799438%)" offset="0.824219"/><stop stop-opacity="1" stop-color="rgb(18.798828%, 48.802185%, 78.799438%)" offset="0.832031"/><stop stop-opacity="1" stop-color="rgb(18.989563%, 48.602295%, 78.607178%)" offset="0.839844"/><stop stop-opacity="1" stop-color="rgb(19.189453%, 48.497009%, 78.407288%)" offset="0.847656"/><stop stop-opacity="1" stop-color="rgb(19.198608%, 48.297119%, 78.399658%)" offset="0.851562"/><stop stop-opacity="1" stop-color="rgb(19.303894%, 48.094177%, 78.294373%)" offset="0.859375"/><stop stop-opacity="1" stop-color="rgb(19.503784%, 47.894287%, 78.094482%)" offset="0.867188"/><stop stop-opacity="1" stop-color="rgb(19.784546%, 47.659302%, 77.999878%)" offset="0.882812"/><stop stop-opacity="1" stop-color="rgb(19.984436%, 47.509766%, 77.818298%)" offset="0.886719"/><stop stop-opacity="1" stop-color="rgb(19.999695%, 47.499084%, 77.616882%)" offset="0.890625"/><stop stop-opacity="1" stop-color="rgb(20.021057%, 47.476196%, 77.598572%)" offset="0.894531"/><stop stop-opacity="1" stop-color="rgb(20.220947%, 47.273254%, 77.449036%)" offset="0.898438"/><stop stop-opacity="1" stop-color="rgb(20.399475%, 46.896362%, 77.2995%)" offset="0.910156"/><stop stop-opacity="1" stop-color="rgb(20.593262%, 46.699524%, 77.2995%)" offset="0.917969"/><stop stop-opacity="1" stop-color="rgb(20.793152%, 46.508789%, 77.108765%)" offset="0.925781"/><stop stop-opacity="1" stop-color="rgb(20.799255%, 46.289062%, 76.908875%)" offset="0.933594"/><stop stop-opacity="1" stop-color="rgb(20.799255%, 46.078491%, 76.899719%)" offset="0.941406"/><stop stop-opacity="1" stop-color="rgb(20.809937%, 45.899963%, 76.899719%)" offset="0.945312"/><stop stop-opacity="1" stop-color="rgb(21.009827%, 45.892334%, 76.89209%)" offset="0.949219"/><stop stop-opacity="1" stop-color="rgb(21.199036%, 45.692444%, 76.6922%)" offset="0.953125"/><stop stop-opacity="1" stop-color="rgb(21.395874%, 45.498657%, 76.499939%)" offset="0.957031"/><stop stop-opacity="1" stop-color="rgb(21.594238%, 45.307922%, 76.499939%)" offset="0.964844"/><stop stop-opacity="1" stop-color="rgb(21.598816%, 45.108032%, 76.321411%)" offset="0.972656"/><stop stop-opacity="1" stop-color="rgb(21.798706%, 45.08667%, 76.119995%)" offset="0.976562"/><stop stop-opacity="1" stop-color="rgb(21.998596%, 44.88678%, 76.098633%)" offset="0.980469"/><stop stop-opacity="1" stop-color="rgb(21.998596%, 44.699097%, 76.094055%)" offset="0.988281"/><stop stop-opacity="1" stop-color="rgb(21.998596%, 44.699097%, 75.894165%)" offset="0.992188"/><stop stop-opacity="1" stop-color="rgb(21.998596%, 44.699097%, 75.698853%)" offset="1"/></radialGradient></defs><g clip-path="url(#7e51f5bb93)"><g clip-path="url(#1440102842)"><g clip-path="url(#d29ba81e4a)"><g clip-path="url(#b4761f2174)"><path fill="url(#913f243d9d)" d="M 475.914062 103.253906 L 149.394531 -159.003906 L -100.921875 152.648438 L 225.597656 414.90625 Z M 475.914062 103.253906 " fill-rule="nonzero"/></g></g></g></g><path fill="#0554bd" d="M 126.355469 194.34375 C 125.75 194.449219 125.136719 194.484375 124.527344 194.5625 C 124.203125 194.605469 123.953125 194.617188 123.695312 194.632812 L 122.921875 194.691406 L 122.726562 194.710938 L 122.628906 194.71875 L 122.480469 194.71875 L 121.882812 194.738281 L 120.679688 194.761719 L 119.761719 194.785156 L 118.601562 194.800781 C 117.34375 194.804688 116.082031 194.753906 114.824219 194.660156 C 104.765625 193.886719 94.8125 189.90625 86.617188 183.445312 C 82.523438 180.222656 78.875 176.402344 75.84375 172.15625 C 72.792969 167.933594 70.339844 163.289062 68.667969 158.402344 C 67.828125 155.957031 67.171875 153.460938 66.722656 150.925781 C 66.605469 150.292969 66.515625 149.65625 66.421875 149.019531 C 66.34375 148.394531 66.25 147.707031 66.203125 147.179688 C 66.175781 146.886719 66.144531 146.671875 66.117188 146.21875 L 66.042969 145.179688 L 65.980469 143.207031 C 65.867188 137.953125 66.464844 132.695312 67.859375 127.617188 C 68.574219 125.085938 69.449219 122.589844 70.515625 120.167969 C 71.605469 117.757812 72.859375 115.417969 74.277344 113.167969 C 77.144531 108.699219 80.609375 104.542969 84.6875 101.046875 C 87.636719 98.457031 90.894531 96.230469 94.355469 94.347656 C 94.324219 94.355469 94.292969 94.363281 94.257812 94.371094 C 91.636719 95.117188 89.085938 96.066406 86.609375 97.164062 C 81.675781 99.386719 77.054688 102.28125 73.011719 105.828125 C 68.933594 109.328125 65.46875 113.480469 62.601562 117.953125 C 61.1875 120.203125 59.929688 122.542969 58.839844 124.949219 C 57.773438 127.371094 56.898438 129.867188 56.183594 132.398438 C 54.789062 137.476562 54.191406 142.734375 54.304688 147.992188 L 54.367188 149.960938 L 54.441406 151 C 54.46875 151.453125 54.5 151.667969 54.527344 151.960938 C 54.574219 152.488281 54.667969 153.175781 54.746094 153.804688 C 54.839844 154.441406 54.929688 155.078125 55.046875 155.707031 C 55.496094 158.242188 56.152344 160.742188 56.988281 163.183594 C 58.664062 168.074219 61.117188 172.71875 64.167969 176.941406 C 67.195312 181.183594 70.847656 185.003906 74.941406 188.230469 C 83.132812 194.691406 93.089844 198.671875 103.148438 199.445312 C 104.40625 199.535156 105.667969 199.589844 106.925781 199.585938 L 108.085938 199.570312 L 109.003906 199.546875 L 110.203125 199.519531 L 110.804688 199.503906 L 110.953125 199.503906 L 111.050781 199.492188 L 111.242188 199.476562 L 112.019531 199.417969 C 112.277344 199.402344 112.527344 199.390625 112.851562 199.34375 C 113.460938 199.269531 114.074219 199.234375 114.679688 199.125 C 115.898438 198.953125 117.117188 198.730469 118.328125 198.453125 C 122.90625 197.410156 127.4375 195.597656 131.871094 193.203125 C 131.25 193.371094 130.628906 193.527344 130.003906 193.671875 C 128.792969 193.949219 127.578125 194.167969 126.355469 194.34375 " fill-opacity="1" fill-rule="nonzero"/><path fill="#0554bd" d="M 332.191406 142.574219 L 332.191406 142.121094 C 332.191406 141.511719 332.1875 140.902344 332.15625 140.292969 C 332.136719 139.683594 332.101562 139.070312 332.046875 138.460938 C 331.851562 136.015625 331.453125 133.5625 330.8125 131.148438 C 329.539062 126.328125 327.339844 121.675781 324.300781 117.59375 C 321.28125 113.5 317.425781 109.96875 313.007812 107.320312 C 308.585938 104.683594 303.625 102.871094 298.476562 102.109375 C 295.902344 101.707031 293.28125 101.59375 290.675781 101.703125 C 288.066406 101.84375 285.472656 102.234375 282.941406 102.855469 C 279.582031 103.695312 276.347656 104.957031 273.320312 106.550781 C 273.925781 106.367188 274.539062 106.199219 275.15625 106.046875 C 277.6875 105.421875 280.277344 105.03125 282.886719 104.894531 C 285.492188 104.785156 288.113281 104.898438 290.6875 105.296875 C 295.835938 106.0625 300.796875 107.871094 305.21875 110.511719 C 309.636719 113.160156 313.492188 116.6875 316.515625 120.78125 C 319.550781 124.867188 321.75 129.519531 323.027344 134.339844 C 323.664062 136.753906 324.066406 139.207031 324.257812 141.652344 C 324.3125 142.261719 324.351562 142.875 324.367188 143.484375 C 324.398438 144.09375 324.402344 144.703125 324.402344 145.3125 L 324.402344 145.765625 L 324.40625 145.945312 L 324.398438 146.042969 L 324.394531 146.242188 L 324.367188 147.179688 C 324.335938 147.71875 324.3125 148.210938 324.261719 148.886719 C 324.21875 149.535156 324.152344 150.117188 324.089844 150.714844 C 324.011719 151.3125 323.945312 151.910156 323.847656 152.5 C 323.667969 153.6875 323.441406 154.867188 323.167969 156.03125 C 322.617188 158.363281 321.890625 160.644531 321 162.851562 C 319.214844 167.265625 316.796875 171.386719 313.820312 175.011719 C 310.847656 178.644531 307.363281 181.804688 303.519531 184.378906 C 302.152344 185.289062 300.734375 186.117188 299.28125 186.875 C 303.507812 185.582031 307.574219 183.667969 311.308594 181.1875 C 315.152344 178.613281 318.636719 175.453125 321.609375 171.824219 C 324.585938 168.195312 327.003906 164.074219 328.789062 159.660156 C 329.679688 157.457031 330.40625 155.171875 330.957031 152.839844 C 331.230469 151.675781 331.457031 150.496094 331.636719 149.308594 C 331.734375 148.71875 331.800781 148.121094 331.878906 147.523438 C 331.9375 146.925781 332.007812 146.34375 332.050781 145.695312 C 332.101562 145.019531 332.125 144.53125 332.15625 143.988281 L 332.183594 143.054688 L 332.1875 142.855469 L 332.191406 142.753906 L 332.191406 142.574219 " fill-opacity="1" fill-rule="nonzero"/><g fill="#0554bd" fill-opacity="0.4"><g transform="translate(15.340954, 329.161086)"><g><path d="M 8.390625 0 L 8.390625 -69.875 L 24.25 -69.875 L 24.25 0 Z M 8.390625 0 "/></g></g></g><g fill="#0554bd" fill-opacity="0.4"><g transform="translate(46.974179, 329.161086)"><g><path d="M 8.390625 0 L 8.390625 -69.875 L 38.234375 -69.875 C 43.554688 -69.875 48.175781 -68.90625 52.09375 -66.96875 C 56.019531 -65.039062 59.046875 -62.28125 61.171875 -58.6875 C 63.304688 -55.09375 64.375 -50.800781 64.375 -45.8125 C 64.375 -40.6875 63.207031 -36.273438 60.875 -32.578125 C 58.550781 -28.890625 55.296875 -26.113281 51.109375 -24.25 L 65.578125 0 L 47.21875 0 L 34.734375 -21.765625 L 24.25 -21.765625 L 24.25 0 Z M 24.0625 -35.140625 L 36.125 -35.140625 C 40.050781 -35.140625 43.0625 -36.050781 45.15625 -37.875 C 47.257812 -39.707031 48.3125 -42.320312 48.3125 -45.71875 C 48.3125 -49.101562 47.257812 -51.710938 45.15625 -53.546875 C 43.0625 -55.378906 40.050781 -56.296875 36.125 -56.296875 L 24.0625 -56.296875 Z M 24.0625 -35.140625 "/></g></g></g><g fill="#0554bd" fill-opacity="1"><g transform="translate(10.929555, 324.74968)"><g><path d="M 8.390625 0 L 8.390625 -69.875 L 24.25 -69.875 L 24.25 0 Z M 8.390625 0 "/></g></g></g><g fill="#0554bd" fill-opacity="1"><g transform="translate(42.562779, 324.74968)"><g><path d="M 8.390625 0 L 8.390625 -69.875 L 38.234375 -69.875 C 43.554688 -69.875 48.175781 -68.90625 52.09375 -66.96875 C 56.019531 -65.039062 59.046875 -62.28125 61.171875 -58.6875 C 63.304688 -55.09375 64.375 -50.800781 64.375 -45.8125 C 64.375 -40.6875 63.207031 -36.273438 60.875 -32.578125 C 58.550781 -28.890625 55.296875 -26.113281 51.109375 -24.25 L 65.578125 0 L 47.21875 0 L 34.734375 -21.765625 L 24.25 -21.765625 L 24.25 0 Z M 24.0625 -35.140625 L 36.125 -35.140625 C 40.050781 -35.140625 43.0625 -36.050781 45.15625 -37.875 C 47.257812 -39.707031 48.3125 -42.320312 48.3125 -45.71875 C 48.3125 -49.101562 47.257812 -51.710938 45.15625 -53.546875 C 43.0625 -55.378906 40.050781 -56.296875 36.125 -56.296875 L 24.0625 -56.296875 Z M 24.0625 -35.140625 "/></g></g></g><g fill="#0554bd" fill-opacity="0.4"><g transform="translate(117.24916, 329.161086)"><g><path d="M 27.046875 0 L 27.046875 -61.484375 L 3.390625 -61.484375 L 3.390625 -69.875 L 59.390625 -69.875 L 59.390625 -61.484375 L 35.828125 -61.484375 L 35.828125 0 Z M 27.046875 0 "/></g></g></g><g fill="#0554bd" fill-opacity="0.4"><g transform="translate(179.118805, 329.161086)"><g><path d="M 31.734375 1.296875 C 26.546875 1.296875 21.957031 0.148438 17.96875 -2.140625 C 13.976562 -4.441406 10.847656 -7.65625 8.578125 -11.78125 C 6.316406 -15.90625 5.1875 -20.628906 5.1875 -25.953125 C 5.1875 -31.273438 6.316406 -35.984375 8.578125 -40.078125 C 10.847656 -44.171875 13.992188 -47.363281 18.015625 -49.65625 C 22.046875 -51.945312 26.65625 -53.09375 31.84375 -53.09375 C 37.363281 -53.09375 42.148438 -51.796875 46.203125 -49.203125 C 50.265625 -46.609375 53.378906 -43.03125 55.546875 -38.46875 C 57.710938 -33.914062 58.691406 -28.613281 58.484375 -22.5625 L 13.671875 -22.5625 C 14.335938 -17.695312 16.300781 -13.816406 19.5625 -10.921875 C 22.820312 -8.035156 26.914062 -6.59375 31.84375 -6.59375 C 35.238281 -6.59375 38.332031 -7.320312 41.125 -8.78125 C 43.914062 -10.25 46.109375 -12.347656 47.703125 -15.078125 L 57.1875 -15.078125 C 55.125 -10.015625 51.832031 -6.019531 47.3125 -3.09375 C 42.789062 -0.164062 37.597656 1.296875 31.734375 1.296875 Z M 13.78125 -29.9375 L 50.109375 -29.9375 C 49.242188 -34.664062 47.160156 -38.394531 43.859375 -41.125 C 40.566406 -43.851562 36.5625 -45.21875 31.84375 -45.21875 C 27.050781 -45.21875 23.023438 -43.816406 19.765625 -41.015625 C 16.503906 -38.222656 14.507812 -34.53125 13.78125 -29.9375 Z M 13.78125 -29.9375 "/></g></g></g><g fill="#0554bd" fill-opacity="0.4"><g transform="translate(241.587206, 329.161086)"><g><path d="M 31.84375 1.296875 C 26.65625 1.296875 22.0625 0.132812 18.0625 -2.1875 C 14.070312 -4.519531 10.925781 -7.75 8.625 -11.875 C 6.332031 -16 5.1875 -20.691406 5.1875 -25.953125 C 5.1875 -31.210938 6.332031 -35.882812 8.625 -39.96875 C 10.925781 -44.0625 14.070312 -47.269531 18.0625 -49.59375 C 22.0625 -51.925781 26.65625 -53.09375 31.84375 -53.09375 C 36.164062 -53.09375 40.125 -52.273438 43.71875 -50.640625 C 47.3125 -49.015625 50.335938 -46.753906 52.796875 -43.859375 C 55.265625 -40.972656 56.929688 -37.566406 57.796875 -33.640625 L 49.3125 -33.640625 C 47.78125 -37.234375 45.46875 -40.039062 42.375 -42.0625 C 39.28125 -44.09375 35.769531 -45.109375 31.84375 -45.109375 C 28.3125 -45.109375 25.164062 -44.289062 22.40625 -42.65625 C 19.644531 -41.03125 17.484375 -38.769531 15.921875 -35.875 C 14.359375 -32.988281 13.578125 -29.679688 13.578125 -25.953125 C 13.578125 -22.222656 14.359375 -18.910156 15.921875 -16.015625 C 17.484375 -13.117188 19.644531 -10.851562 22.40625 -9.21875 C 25.164062 -7.59375 28.3125 -6.78125 31.84375 -6.78125 C 36.03125 -6.78125 39.703125 -7.894531 42.859375 -10.125 C 46.023438 -12.351562 48.238281 -15.332031 49.5 -19.0625 L 58.390625 -19.0625 C 56.660156 -12.8125 53.429688 -7.851562 48.703125 -4.1875 C 43.984375 -0.53125 38.363281 1.296875 31.84375 1.296875 Z M 31.84375 1.296875 "/></g></g></g><g fill="#0554bd" fill-opacity="0.4"><g transform="translate(303.856024, 329.161086)"><g><path d="M 9.28125 0 L 9.28125 -73.859375 L 17.671875 -73.859375 L 17.671875 -45.015625 C 19.929688 -47.804688 22.625 -49.847656 25.75 -51.140625 C 28.875 -52.441406 32.101562 -53.09375 35.4375 -53.09375 C 42.289062 -53.09375 47.644531 -50.945312 51.5 -46.65625 C 55.363281 -42.363281 57.296875 -36.523438 57.296875 -29.140625 L 57.296875 0 L 48.90625 0 L 48.90625 -28.34375 C 48.90625 -33.53125 47.609375 -37.617188 45.015625 -40.609375 C 42.421875 -43.609375 38.859375 -45.109375 34.328125 -45.109375 C 29.472656 -45.109375 25.484375 -43.425781 22.359375 -40.0625 C 19.234375 -36.707031 17.671875 -32.171875 17.671875 -26.453125 L 17.671875 0 Z M 9.28125 0 "/></g></g></g><g fill="#0554bd" fill-opacity="1"><g transform="translate(112.837761, 324.74968)"><g><path d="M 27.046875 0 L 27.046875 -61.484375 L 3.390625 -61.484375 L 3.390625 -69.875 L 59.390625 -69.875 L 59.390625 -61.484375 L 35.828125 -61.484375 L 35.828125 0 Z M 27.046875 0 "/></g></g></g><g fill="#0554bd" fill-opacity="1"><g transform="translate(174.707406, 324.74968)"><g><path d="M 31.734375 1.296875 C 26.546875 1.296875 21.957031 0.148438 17.96875 -2.140625 C 13.976562 -4.441406 10.847656 -7.65625 8.578125 -11.78125 C 6.316406 -15.90625 5.1875 -20.628906 5.1875 -25.953125 C 5.1875 -31.273438 6.316406 -35.984375 8.578125 -40.078125 C 10.847656 -44.171875 13.992188 -47.363281 18.015625 -49.65625 C 22.046875 -51.945312 26.65625 -53.09375 31.84375 -53.09375 C 37.363281 -53.09375 42.148438 -51.796875 46.203125 -49.203125 C 50.265625 -46.609375 53.378906 -43.03125 55.546875 -38.46875 C 57.710938 -33.914062 58.691406 -28.613281 58.484375 -22.5625 L 13.671875 -22.5625 C 14.335938 -17.695312 16.300781 -13.816406 19.5625 -10.921875 C 22.820312 -8.035156 26.914062 -6.59375 31.84375 -6.59375 C 35.238281 -6.59375 38.332031 -7.320312 41.125 -8.78125 C 43.914062 -10.25 46.109375 -12.347656 47.703125 -15.078125 L 57.1875 -15.078125 C 55.125 -10.015625 51.832031 -6.019531 47.3125 -3.09375 C 42.789062 -0.164062 37.597656 1.296875 31.734375 1.296875 Z M 13.78125 -29.9375 L 50.109375 -29.9375 C 49.242188 -34.664062 47.160156 -38.394531 43.859375 -41.125 C 40.566406 -43.851562 36.5625 -45.21875 31.84375 -45.21875 C 27.050781 -45.21875 23.023438 -43.816406 19.765625 -41.015625 C 16.503906 -38.222656 14.507812 -34.53125 13.78125 -29.9375 Z M 13.78125 -29.9375 "/></g></g></g><g fill="#0554bd" fill-opacity="1"><g transform="translate(237.175807, 324.74968)"><g><path d="M 31.84375 1.296875 C 26.65625 1.296875 22.0625 0.132812 18.0625 -2.1875 C 14.070312 -4.519531 10.925781 -7.75 8.625 -11.875 C 6.332031 -16 5.1875 -20.691406 5.1875 -25.953125 C 5.1875 -31.210938 6.332031 -35.882812 8.625 -39.96875 C 10.925781 -44.0625 14.070312 -47.269531 18.0625 -49.59375 C 22.0625 -51.925781 26.65625 -53.09375 31.84375 -53.09375 C 36.164062 -53.09375 40.125 -52.273438 43.71875 -50.640625 C 47.3125 -49.015625 50.335938 -46.753906 52.796875 -43.859375 C 55.265625 -40.972656 56.929688 -37.566406 57.796875 -33.640625 L 49.3125 -33.640625 C 47.78125 -37.234375 45.46875 -40.039062 42.375 -42.0625 C 39.28125 -44.09375 35.769531 -45.109375 31.84375 -45.109375 C 28.3125 -45.109375 25.164062 -44.289062 22.40625 -42.65625 C 19.644531 -41.03125 17.484375 -38.769531 15.921875 -35.875 C 14.359375 -32.988281 13.578125 -29.679688 13.578125 -25.953125 C 13.578125 -22.222656 14.359375 -18.910156 15.921875 -16.015625 C 17.484375 -13.117188 19.644531 -10.851562 22.40625 -9.21875 C 25.164062 -7.59375 28.3125 -6.78125 31.84375 -6.78125 C 36.03125 -6.78125 39.703125 -7.894531 42.859375 -10.125 C 46.023438 -12.351562 48.238281 -15.332031 49.5 -19.0625 L 58.390625 -19.0625 C 56.660156 -12.8125 53.429688 -7.851562 48.703125 -4.1875 C 43.984375 -0.53125 38.363281 1.296875 31.84375 1.296875 Z M 31.84375 1.296875 "/></g></g></g><g fill="#0554bd" fill-opacity="1"><g transform="translate(299.444625, 324.74968)"><g><path d="M 9.28125 0 L 9.28125 -73.859375 L 17.671875 -73.859375 L 17.671875 -45.015625 C 19.929688 -47.804688 22.625 -49.847656 25.75 -51.140625 C 28.875 -52.441406 32.101562 -53.09375 35.4375 -53.09375 C 42.289062 -53.09375 47.644531 -50.945312 51.5 -46.65625 C 55.363281 -42.363281 57.296875 -36.523438 57.296875 -29.140625 L 57.296875 0 L 48.90625 0 L 48.90625 -28.34375 C 48.90625 -33.53125 47.609375 -37.617188 45.015625 -40.609375 C 42.421875 -43.609375 38.859375 -45.109375 34.328125 -45.109375 C 29.472656 -45.109375 25.484375 -43.425781 22.359375 -40.0625 C 19.234375 -36.707031 17.671875 -32.171875 17.671875 -26.453125 L 17.671875 0 Z M 9.28125 0 "/></g></g></g><g fill="#0554bd" fill-opacity="1"><g transform="translate(38.457412, 356.829742)"><g><path d="M 5.578125 0 L 5.578125 -12.6875 L 0.703125 -12.6875 L 0.703125 -14.421875 L 12.25 -14.421875 L 12.25 -12.6875 L 7.390625 -12.6875 L 7.390625 0 Z M 5.578125 0 "/></g></g></g><g fill="#0554bd" fill-opacity="1"><g transform="translate(67.909044, 356.829742)"><g><path d="M 2.09375 0 L 2.09375 -14.421875 L 10.859375 -14.421875 L 10.859375 -12.734375 L 3.90625 -12.734375 L 3.90625 -8.171875 L 10.34375 -8.171875 L 10.34375 -6.5 L 3.90625 -6.5 L 3.90625 -1.6875 L 11.078125 -1.6875 L 11.078125 0 Z M 2.09375 0 "/></g></g></g><g fill="#0554bd" fill-opacity="1"><g transform="translate(96.804589, 356.829742)"><g><path d="M 8.484375 0.265625 C 7.429688 0.265625 6.457031 0.0820312 5.5625 -0.28125 C 4.664062 -0.65625 3.890625 -1.175781 3.234375 -1.84375 C 2.585938 -2.507812 2.082031 -3.296875 1.71875 -4.203125 C 1.363281 -5.117188 1.1875 -6.117188 1.1875 -7.203125 C 1.1875 -8.285156 1.363281 -9.285156 1.71875 -10.203125 C 2.082031 -11.117188 2.585938 -11.910156 3.234375 -12.578125 C 3.890625 -13.242188 4.664062 -13.757812 5.5625 -14.125 C 6.457031 -14.5 7.429688 -14.6875 8.484375 -14.6875 C 9.617188 -14.6875 10.664062 -14.472656 11.625 -14.046875 C 12.582031 -13.628906 13.398438 -13.03125 14.078125 -12.25 C 14.753906 -11.476562 15.25 -10.566406 15.5625 -9.515625 L 13.640625 -9.515625 C 13.265625 -10.554688 12.617188 -11.375 11.703125 -11.96875 C 10.796875 -12.570312 9.742188 -12.875 8.546875 -12.875 C 7.472656 -12.875 6.523438 -12.628906 5.703125 -12.140625 C 4.878906 -11.660156 4.226562 -10.992188 3.75 -10.140625 C 3.28125 -9.296875 3.046875 -8.316406 3.046875 -7.203125 C 3.046875 -6.097656 3.28125 -5.117188 3.75 -4.265625 C 4.226562 -3.410156 4.878906 -2.742188 5.703125 -2.265625 C 6.523438 -1.785156 7.472656 -1.546875 8.546875 -1.546875 C 9.765625 -1.546875 10.847656 -1.859375 11.796875 -2.484375 C 12.742188 -3.117188 13.40625 -3.976562 13.78125 -5.0625 L 15.6875 -5.0625 C 15.40625 -3.988281 14.914062 -3.054688 14.21875 -2.265625 C 13.53125 -1.472656 12.691406 -0.851562 11.703125 -0.40625 C 10.722656 0.0390625 9.648438 0.265625 8.484375 0.265625 Z M 8.484375 0.265625 "/></g></g></g><g fill="#0554bd" fill-opacity="1"><g transform="translate(130.087, 356.829742)"><g><path d="M 11.546875 0 L 11.546875 -6.484375 L 3.90625 -6.484375 L 3.90625 0 L 2.09375 0 L 2.09375 -14.421875 L 3.90625 -14.421875 L 3.90625 -8.21875 L 11.546875 -8.21875 L 11.546875 -14.421875 L 13.359375 -14.421875 L 13.359375 0 Z M 11.546875 0 "/></g></g></g><g fill="#0554bd" fill-opacity="1"><g transform="translate(162.0307, 356.829742)"><g><path d="M 2.09375 0 L 2.09375 -14.421875 L 3.8125 -14.421875 L 11.78125 -3.125 L 11.78125 -14.421875 L 13.546875 -14.421875 L 13.546875 0 L 11.859375 0 L 3.890625 -11.28125 L 3.890625 0 Z M 2.09375 0 "/></g></g></g><g fill="#0554bd" fill-opacity="1"><g transform="translate(194.159763, 356.829742)"><g><path d="M 8.65625 0.265625 C 7.195312 0.265625 5.90625 -0.0507812 4.78125 -0.6875 C 3.65625 -1.320312 2.773438 -2.203125 2.140625 -3.328125 C 1.503906 -4.460938 1.1875 -5.753906 1.1875 -7.203125 C 1.1875 -8.671875 1.503906 -9.960938 2.140625 -11.078125 C 2.773438 -12.203125 3.65625 -13.082031 4.78125 -13.71875 C 5.90625 -14.363281 7.195312 -14.6875 8.65625 -14.6875 C 10.125 -14.6875 11.414062 -14.363281 12.53125 -13.71875 C 13.644531 -13.082031 14.519531 -12.203125 15.15625 -11.078125 C 15.800781 -9.960938 16.125 -8.671875 16.125 -7.203125 C 16.125 -5.753906 15.800781 -4.460938 15.15625 -3.328125 C 14.519531 -2.203125 13.644531 -1.320312 12.53125 -0.6875 C 11.414062 -0.0507812 10.125 0.265625 8.65625 0.265625 Z M 3.046875 -7.203125 C 3.046875 -6.097656 3.28125 -5.117188 3.75 -4.265625 C 4.226562 -3.410156 4.890625 -2.742188 5.734375 -2.265625 C 6.578125 -1.785156 7.550781 -1.546875 8.65625 -1.546875 C 9.757812 -1.546875 10.726562 -1.785156 11.5625 -2.265625 C 12.40625 -2.742188 13.0625 -3.410156 13.53125 -4.265625 C 14.007812 -5.117188 14.25 -6.097656 14.25 -7.203125 C 14.25 -8.328125 14.007812 -9.3125 13.53125 -10.15625 C 13.0625 -11 12.40625 -11.660156 11.5625 -12.140625 C 10.726562 -12.628906 9.757812 -12.875 8.65625 -12.875 C 7.550781 -12.875 6.578125 -12.628906 5.734375 -12.140625 C 4.890625 -11.660156 4.226562 -11 3.75 -10.15625 C 3.28125 -9.3125 3.046875 -8.328125 3.046875 -7.203125 Z M 3.046875 -7.203125 "/></g></g></g><g fill="#0554bd" fill-opacity="1"><g transform="translate(227.936475, 356.829742)"><g><path d="M 2.09375 0 L 2.09375 -14.421875 L 3.90625 -14.421875 L 3.90625 -1.734375 L 10.921875 -1.734375 L 10.921875 0 Z M 2.09375 0 "/></g></g></g><g fill="#0554bd" fill-opacity="1"><g transform="translate(255.966985, 356.829742)"><g><path d="M 8.65625 0.265625 C 7.195312 0.265625 5.90625 -0.0507812 4.78125 -0.6875 C 3.65625 -1.320312 2.773438 -2.203125 2.140625 -3.328125 C 1.503906 -4.460938 1.1875 -5.753906 1.1875 -7.203125 C 1.1875 -8.671875 1.503906 -9.960938 2.140625 -11.078125 C 2.773438 -12.203125 3.65625 -13.082031 4.78125 -13.71875 C 5.90625 -14.363281 7.195312 -14.6875 8.65625 -14.6875 C 10.125 -14.6875 11.414062 -14.363281 12.53125 -13.71875 C 13.644531 -13.082031 14.519531 -12.203125 15.15625 -11.078125 C 15.800781 -9.960938 16.125 -8.671875 16.125 -7.203125 C 16.125 -5.753906 15.800781 -4.460938 15.15625 -3.328125 C 14.519531 -2.203125 13.644531 -1.320312 12.53125 -0.6875 C 11.414062 -0.0507812 10.125 0.265625 8.65625 0.265625 Z M 3.046875 -7.203125 C 3.046875 -6.097656 3.28125 -5.117188 3.75 -4.265625 C 4.226562 -3.410156 4.890625 -2.742188 5.734375 -2.265625 C 6.578125 -1.785156 7.550781 -1.546875 8.65625 -1.546875 C 9.757812 -1.546875 10.726562 -1.785156 11.5625 -2.265625 C 12.40625 -2.742188 13.0625 -3.410156 13.53125 -4.265625 C 14.007812 -5.117188 14.25 -6.097656 14.25 -7.203125 C 14.25 -8.328125 14.007812 -9.3125 13.53125 -10.15625 C 13.0625 -11 12.40625 -11.660156 11.5625 -12.140625 C 10.726562 -12.628906 9.757812 -12.875 8.65625 -12.875 C 7.550781 -12.875 6.578125 -12.628906 5.734375 -12.140625 C 4.890625 -11.660156 4.226562 -11 3.75 -10.15625 C 3.28125 -9.3125 3.046875 -8.328125 3.046875 -7.203125 Z M 3.046875 -7.203125 "/></g></g></g><g fill="#0554bd" fill-opacity="1"><g transform="translate(289.74371, 356.829742)"><g><path d="M 8.53125 0.265625 C 7.46875 0.265625 6.488281 0.0820312 5.59375 -0.28125 C 4.707031 -0.65625 3.929688 -1.175781 3.265625 -1.84375 C 2.609375 -2.507812 2.097656 -3.296875 1.734375 -4.203125 C 1.367188 -5.117188 1.1875 -6.117188 1.1875 -7.203125 C 1.1875 -8.285156 1.363281 -9.28125 1.71875 -10.1875 C 2.082031 -11.09375 2.59375 -11.882812 3.25 -12.5625 C 3.914062 -13.238281 4.691406 -13.757812 5.578125 -14.125 C 6.460938 -14.5 7.429688 -14.6875 8.484375 -14.6875 C 9.578125 -14.6875 10.59375 -14.484375 11.53125 -14.078125 C 12.46875 -13.679688 13.273438 -13.125 13.953125 -12.40625 C 14.628906 -11.695312 15.117188 -10.867188 15.421875 -9.921875 L 13.453125 -9.921875 C 12.992188 -10.859375 12.335938 -11.582031 11.484375 -12.09375 C 10.640625 -12.613281 9.660156 -12.875 8.546875 -12.875 C 7.472656 -12.875 6.519531 -12.628906 5.6875 -12.140625 C 4.863281 -11.660156 4.21875 -10.992188 3.75 -10.140625 C 3.28125 -9.296875 3.046875 -8.316406 3.046875 -7.203125 C 3.046875 -6.097656 3.28125 -5.117188 3.75 -4.265625 C 4.226562 -3.410156 4.878906 -2.742188 5.703125 -2.265625 C 6.535156 -1.785156 7.488281 -1.546875 8.5625 -1.546875 C 9.539062 -1.546875 10.40625 -1.738281 11.15625 -2.125 C 11.914062 -2.507812 12.53125 -3.039062 13 -3.71875 C 13.476562 -4.394531 13.78125 -5.1875 13.90625 -6.09375 L 8.03125 -6.09375 L 8.03125 -7.828125 L 15.859375 -7.828125 C 15.878906 -6.242188 15.582031 -4.84375 14.96875 -3.625 C 14.363281 -2.414062 13.507812 -1.460938 12.40625 -0.765625 C 11.300781 -0.078125 10.007812 0.265625 8.53125 0.265625 Z M 8.53125 0.265625 "/></g></g></g><g fill="#0554bd" fill-opacity="1"><g transform="translate(323.211488, 356.829742)"><g><path d="M 5.765625 0 L 5.765625 -5.1875 L 0.34375 -14.421875 L 2.453125 -14.421875 L 4.796875 -10.375 L 6.671875 -7.125 L 10.921875 -14.421875 L 12.953125 -14.421875 L 7.53125 -5.1875 L 7.53125 0 Z M 5.765625 0 "/></g></g></g></svg>